<?xml version="1.0" standalone="no"?>
<!DOCTYPE svg PUBLIC "-//W3C//DTD SVG 20010904//EN"
 "http://www.w3.org/TR/2001/REC-SVG-20010904/DTD/svg10.dtd">
<svg version="1.0" xmlns="http://www.w3.org/2000/svg"
 width="640.000000pt" height="640.000000pt" viewBox="0 0 640.000000 640.000000"
 preserveAspectRatio="xMidYMid meet">

<g transform="translate(0.000000,640.000000) scale(0.100000,-0.100000)"
fill="#000000" stroke="none">
<path d="M1840 3520 l0 -1680 1040 0 1040 0 0 230 0 230 -810 0 -810 0 0 1215
0 1215 470 0 470 0 0 235 0 235 -700 0 -700 0 0 -1680z"/>
<path d="M3420 4965 l0 -235 655 0 655 0 0 -655 0 -655 235 0 235 0 0 890 0
890 -890 0 -890 0 0 -235z"/>
<path d="M1427 4842 l-227 -227 0 -1708 0 -1707 1680 0 1680 0 0 1680 0 1680
-1045 0 -1045 0 0 -235 0 -235 810 0 810 0 0 -1210 0 -1210 -1210 0 -1210 0 0
1700 c0 935 -3 1700 -8 1700 -4 0 -110 -102 -235 -228z"/>
<path d="M4730 2283 l0 -958 235 235 235 235 0 722 0 723 -235 0 -235 0 0
-957z"/>
</g>
</svg>
